# xmcd
#
# Track frame offsets: 
#        150
#        15131
#        27589
#        38578
#        54540
#        66458
#        80451
#        93482
#        107272
#        119421
#        135086
#        156085
#        165265
#        175620
#        188257
#        203226
#        214221
#        241013
#        255205
#        271350
#
# Disc length: 3808 seconds
#
# Revision: 0
# Processed by: cddbd v1.5.2PL0 Copyright (c) Steve Scherf et al.
# Submitted via: ExactAudioCopy v0.90b3
#
DISCID=ee0ede14
DTITLE=EMI Prisma präsentiert - die größten Schlager CD1 -REX
DYEAR=2008
DGENRE=Folk
TTITLE0=Peter Alexander - Der letzte Walzer
TTITLE1=Peggy March - Mit 17 hat man noch Träume
TTITLE2=Manuela - Schuld war nur der Bossa Nova
TTITLE3=Freddy Quinn - Heimweh (Dort, wo die Blumen blühen)
TTITLE4=Ivo Robic - Morgen
TTITLE5=Wanda Jackson - Santa Domingo
TTITLE6=Dorthe - Sind Sie der Graf von Luxemburg?
TTITLE7=Roy Black - Ganz in Weiß
TTITLE8=Siw Malmkvist - Küsse nie nach Mitternacht
TTITLE9=Gitta Lind - Blumen für die Dame (Das Blumenmädchen)
TTITLE10=Ute Freudenberg - Jugendliebe
TTITLE11=Angèle Durand - Chanson d'amour
TTITLE12=Connie Francis - Die Liebe ist ein seltsames Spiel
TTITLE13=Heinz Schachtner - Mitternachts-Blues (Instrumental)
TTITLE14=Bernd Clüver - Der Junge mit der Mundharmonika
TTITLE15=Phil and John - Hello Mary Lou
TTITLE16=Christian Anders - Geh nicht vorbei
TTITLE17=Original Nilson Brothers - Aber Dich gibt es nur einmal für m
TTITLE17=ich
TTITLE18=Rudolf Schock - O sole mio
TTITLE19=Peter Alexander - Bist Du einsam heut' Nacht
EXTD=
EXTT0=
EXTT1=
EXTT2=
EXTT3=
EXTT4=
EXTT5=
EXTT6=
EXTT7=
EXTT8=
EXTT9=
EXTT10=
EXTT11=
EXTT12=
EXTT13=
EXTT14=
EXTT15=
EXTT16=
EXTT17=
EXTT18=
EXTT19=
PLAYORDER=
